# xmcd
#
# Track frame offsets: 
#        150
#        22735
#        37670
#        53497
#        66400
#        83257
#        97290
#        114150
#        136727
#        152647
#        168770
#        189360
#        205897
#        221350
#        235852
#        251192
#
# Disc length: 3452 seconds
#
# Revision: 1
# Processed by: cddbd v1.5.1PL0 Copyright (c) Steve Scherf et al.
# Submitted via: ExactAudioCopy v0.90b4
#
DISCID=bf0d7a10
DTITLE=Ella Fitzgerald - Fantastic
DYEAR=1991
DGENRE=Jazz
TTITLE0=Mack The Knife (Live)
TTITLE1=All The Things You Are
TTITLE2=I´ve Got A Crush On You
TTITLE3=Manhattan
TTITLE4=Laura
TTITLE5=Night And Day
TTITLE6=My Romance
TTITLE7=Summertime
TTITLE8=´S Wonderful
TTITLE9=But Not For Me
TTITLE10=Someone To Watch Over Me
TTITLE11=Begin The Beguine
TTITLE12=Get Out Of Town
TTITLE13=Blue Moon
TTITLE14=The Lady Is A Tramp
TTITLE15=All Of You
EXTD=YEAR: 1991
EXTT0=
EXTT1=
EXTT2=
EXTT3=
EXTT4=
EXTT5=
EXTT6=
EXTT7=
EXTT8=
EXTT9=
EXTT10=
EXTT11=
EXTT12=
EXTT13=
EXTT14=
EXTT15=
PLAYORDER=
